<?xml version="1.0" encoding="utf-8"?>
<!-- Generator: Adobe Illustrator 22.0.1, SVG Export Plug-In . SVG Version: 6.00 Build 0)  -->
<svg version="1.1" id="Layer_1" xmlns="http://www.w3.org/2000/svg" xmlns:xlink="http://www.w3.org/1999/xlink" x="0px" y="0px"
	 viewBox="0 0 18.5 14.4" style="enable-background:new 0 0 18.5 14.4;" xml:space="preserve">
<style type="text/css">
	.st0{fill:#565D66;}
	.st1{fill:#EAEAEA;}
	.st2{fill:#103856;}
	.st3{fill:#991032;}
	.st4{fill:#F48900;}
	.st5{opacity:0.5;fill:#6A6A69;enable-background:new    ;}
	.st6{fill:#FFFFFF;}
	.st7{fill:#EDEDED;}
	.st8{fill:#158181;}
	.st9{fill:#157070;}
	.st10{fill:none;}
	.st11{fill:#112730;}
	.st12{fill:#1BB290;}
	.st13{fill:#3C5A98;}
</style>
<path id="XMLID_14_" class="st0" d="M-89.2,15.2c-0.4,0-0.8,0-1.2,0c0-4.8,0-9.6,0-14.4c0.4,0,0.8,0,1.2,0
	C-89.2,5.6-89.2,10.4-89.2,15.2z"/>
<rect id="XMLID_13_" x="-88.8" y="0.8" class="st1" width="10.5" height="14.4"/>
<rect id="XMLID_12_" x="-87.4" y="3.7" class="st0" width="2.5" height="2.1"/>
<rect id="XMLID_11_" x="-87.4" y="7.1" class="st0" width="2.5" height="2.1"/>
<rect id="XMLID_10_" x="-87.4" y="10.4" class="st0" width="2.5" height="2.1"/>
<path id="XMLID_9_" class="st0" d="M-81.7,4h-2.2c-0.1,0-0.2-0.1-0.2-0.2l0,0c0-0.1,0.1-0.2,0.2-0.2h2.2c0.1,0,0.2,0.1,0.2,0.2l0,0
	C-81.6,4-81.6,4-81.7,4z"/>
<path id="XMLID_8_" class="st0" d="M-79.8,4.9h-4.1c-0.1,0-0.2-0.1-0.2-0.2l0,0c0-0.1,0.1-0.2,0.2-0.2h4.1c0.1,0,0.2,0.1,0.2,0.2
	l0,0C-79.6,4.8-79.7,4.9-79.8,4.9z"/>
<path id="XMLID_7_" class="st0" d="M-79.8,5.8h-4.1c-0.1,0-0.2-0.1-0.2-0.2l0,0c0-0.1,0.1-0.2,0.2-0.2h4.1c0.1,0,0.2,0.1,0.2,0.2
	l0,0C-79.6,5.7-79.7,5.8-79.8,5.8z"/>
<path id="XMLID_6_" class="st0" d="M-81.7,7.5h-2.2c-0.1,0-0.2-0.1-0.2-0.2l0,0c0-0.1,0.1-0.2,0.2-0.2h2.2c0.1,0,0.2,0.1,0.2,0.2
	l0,0C-81.6,7.4-81.6,7.5-81.7,7.5z"/>
<path id="XMLID_5_" class="st0" d="M-79.8,8.3h-4.1c-0.1,0-0.2-0.1-0.2-0.2l0,0c0-0.1,0.1-0.2,0.2-0.2h4.1c0.1,0,0.2,0.1,0.2,0.2
	l0,0C-79.6,8.3-79.7,8.3-79.8,8.3z"/>
<path id="XMLID_4_" class="st0" d="M-79.8,9.2h-4.1c-0.1,0-0.2-0.1-0.2-0.2l0,0c0-0.1,0.1-0.2,0.2-0.2h4.1c0.1,0,0.2,0.1,0.2,0.2
	l0,0C-79.6,9.1-79.7,9.2-79.8,9.2z"/>
<path id="XMLID_3_" class="st0" d="M-81.7,10.8h-2.2c-0.1,0-0.2-0.1-0.2-0.2l0,0c0-0.1,0.1-0.2,0.2-0.2h2.2c0.1,0,0.2,0.1,0.2,0.2
	l0,0C-81.6,10.7-81.6,10.8-81.7,10.8z"/>
<path id="XMLID_2_" class="st0" d="M-79.8,11.6h-4.1c-0.1,0-0.2-0.1-0.2-0.2l0,0c0-0.1,0.1-0.2,0.2-0.2h4.1c0.1,0,0.2,0.1,0.2,0.2
	l0,0C-79.6,11.5-79.7,11.6-79.8,11.6z"/>
<path id="XMLID_1_" class="st0" d="M-79.8,12.5h-4.1c-0.1,0-0.2-0.1-0.2-0.2l0,0c0-0.1,0.1-0.2,0.2-0.2h4.1c0.1,0,0.2,0.1,0.2,0.2
	l0,0C-79.6,12.4-79.7,12.5-79.8,12.5z"/>
<g>
	<path id="XMLID_28_" class="st2" d="M-89.2-2.7c-0.4,0-0.8,0-1.2,0c0-4.8,0-9.6,0-14.4c0.4,0,0.8,0,1.2,0
		C-89.2-12.3-89.2-7.5-89.2-2.7z"/>
	<g>
		<rect id="XMLID_27_" x="-88.8" y="-17.1" class="st1" width="10.5" height="14.4"/>
		<rect id="XMLID_26_" x="-87.4" y="-14.2" class="st2" width="2.5" height="2.1"/>
		<rect id="XMLID_25_" x="-87.4" y="-10.8" class="st3" width="2.5" height="2.1"/>
		<rect id="XMLID_24_" x="-87.4" y="-7.5" class="st4" width="2.5" height="2.1"/>
		<path id="XMLID_23_" class="st5" d="M-81.7-13.9h-2.2c-0.1,0-0.2-0.1-0.2-0.2l0,0c0-0.1,0.1-0.2,0.2-0.2h2.2
			c0.1,0,0.2,0.1,0.2,0.2l0,0C-81.6-14-81.6-13.9-81.7-13.9z"/>
		<path id="XMLID_22_" class="st5" d="M-79.8-13h-4.1c-0.1,0-0.2-0.1-0.2-0.2l0,0c0-0.1,0.1-0.2,0.2-0.2h4.1c0.1,0,0.2,0.1,0.2,0.2
			l0,0C-79.6-13.1-79.7-13-79.8-13z"/>
		<path id="XMLID_21_" class="st5" d="M-79.8-12.2h-4.1c-0.1,0-0.2-0.1-0.2-0.2l0,0c0-0.1,0.1-0.2,0.2-0.2h4.1
			c0.1,0,0.2,0.1,0.2,0.2l0,0C-79.6-12.2-79.7-12.2-79.8-12.2z"/>
		<path id="XMLID_20_" class="st5" d="M-81.7-10.5h-2.2c-0.1,0-0.2-0.1-0.2-0.2l0,0c0-0.1,0.1-0.2,0.2-0.2h2.2
			c0.1,0,0.2,0.1,0.2,0.2l0,0C-81.6-10.5-81.6-10.5-81.7-10.5z"/>
		<path id="XMLID_19_" class="st5" d="M-79.8-9.6h-4.1c-0.1,0-0.2-0.1-0.2-0.2l0,0c0-0.1,0.1-0.2,0.2-0.2h4.1c0.1,0,0.2,0.1,0.2,0.2
			l0,0C-79.6-9.7-79.7-9.6-79.8-9.6z"/>
		<path id="XMLID_18_" class="st5" d="M-79.8-8.7h-4.1c-0.1,0-0.2-0.1-0.2-0.2l0,0c0-0.1,0.1-0.2,0.2-0.2h4.1c0.1,0,0.2,0.1,0.2,0.2
			l0,0C-79.6-8.8-79.7-8.7-79.8-8.7z"/>
		<path id="XMLID_17_" class="st5" d="M-81.7-7.2h-2.2c-0.1,0-0.2-0.1-0.2-0.2l0,0c0-0.1,0.1-0.2,0.2-0.2h2.2c0.1,0,0.2,0.1,0.2,0.2
			l0,0C-81.6-7.3-81.6-7.2-81.7-7.2z"/>
		<path id="XMLID_16_" class="st5" d="M-79.8-6.3h-4.1c-0.1,0-0.2-0.1-0.2-0.2l0,0c0-0.1,0.1-0.2,0.2-0.2h4.1c0.1,0,0.2,0.1,0.2,0.2
			l0,0C-79.6-6.4-79.7-6.3-79.8-6.3z"/>
		<path id="XMLID_15_" class="st5" d="M-79.8-5.5h-4.1c-0.1,0-0.2-0.1-0.2-0.2l0,0c0-0.1,0.1-0.2,0.2-0.2h4.1c0.1,0,0.2,0.1,0.2,0.2
			l0,0C-79.6-5.5-79.7-5.5-79.8-5.5z"/>
	</g>
</g>
<g id="XMLID_33_">
	<g id="XMLID_34_">
		<g>
			<rect id="XMLID_35_" x="-65.1" y="0.8" class="st6" width="12.2" height="14.4"/>
		</g>
	</g>
</g>
<path id="XMLID_31_" class="st0" d="M-66.4,0.8c-0.4,0-0.6,0.4-0.6,0.8v12.6c0,0.5,0.2,0.9,0.6,0.9h0.9V0.8H-66.4z"/>
<rect id="XMLID_30_" x="-65.1" y="0.8" class="st7" width="12.2" height="14.4"/>
<path id="XMLID_29_" class="st0" d="M-54.2,12.4c-3.3,0-6.6,0-9.9,0c0-0.3,0.2-0.4,0.3-0.6c0.1,0,0.1-0.1,0.2-0.1
	c0.4-0.2,0.8-0.4,1.2-0.6c0.5-0.2,1-0.4,1.5-0.6c0-0.1,0.1-0.2,0.1-0.4c0-0.1,0-0.3,0.1-0.3c0.1,0,0.1,0,0.2,0c0-0.2,0-0.4,0.1-0.6
	c0-0.1,0-0.2,0-0.2l-0.1-0.1l-0.1-0.1l0,0c0-0.1-0.1-0.1-0.1-0.2c-0.1-0.1-0.1-0.2-0.1-0.3c0-0.1-0.1-0.2-0.1-0.3
	c0-0.1-0.1-0.2-0.1-0.2c-0.1-0.2-0.1-0.4-0.1-0.7c0-0.1,0-0.2,0.1-0.2h0.1c0-0.4,0-0.9,0-1.3c0-0.1,0-0.3,0-0.4s0.1-0.3,0.2-0.4
	c0.1-0.1,0.2-0.2,0.3-0.3l0.1-0.1c0.1-0.1,0.2-0.2,0.3-0.2c0.1-0.1,0.2-0.1,0.4-0.1C-59.4,4-59.2,4-59,3.9c0.1,0,0.3-0.1,0.4-0.1
	c0.1,0,0.3-0.1,0.5,0c0,0.1-0.1,0.1-0.1,0.1s-0.1,0.1-0.1,0.2s0.1,0.1,0.1,0.1l0.1,0.1l0,0c0.2,0.1,0.4,0.3,0.5,0.5
	c0.1,0.1,0.2,0.2,0.2,0.3c0,0.1,0,0.3,0,0.4c0,0.4,0,0.9,0,1.3c0.2,0,0.1,0.1,0.1,0.3c0,0.3,0,0.5-0.1,0.7c0,0.1-0.1,0.1-0.1,0.2
	c0,0.1,0,0.1,0,0.2c-0.1,0.3-0.1,0.5-0.3,0.7L-57.9,9c0,0.1,0,0.3,0,0.4c0,0.2,0,0.3,0,0.4h0.1c0.2,0,0.1,0.2,0.2,0.4
	c0,0.1,0.1,0.1,0.1,0.2s0.1,0.1,0.1,0.2c0.8,0.3,1.7,0.7,2.5,1.1c0.1,0.1,0.2,0.1,0.3,0.2l0,0C-54.4,11.9-54.3,12.1-54.2,12.4
	L-54.2,12.4z"/>
<g>
	<g id="XMLID_40_">
		<g id="XMLID_41_">
			<g>
				<rect id="XMLID_42_" x="-65.1" y="-17.1" class="st6" width="12.2" height="14.4"/>
			</g>
		</g>
	</g>
	<path id="XMLID_38_" class="st8" d="M-66.4-17.1c-0.4,0-0.6,0.4-0.6,0.8v12.6c0,0.5,0.2,0.9,0.6,0.9h0.9v-14.3H-66.4z"/>
	<rect id="XMLID_37_" x="-65.1" y="-17.1" class="st7" width="12.2" height="14.4"/>
	<path id="XMLID_36_" class="st8" d="M-54.2-5.5c-3.3,0-6.6,0-9.9,0c0-0.3,0.2-0.4,0.3-0.6c0.1,0,0.1-0.1,0.2-0.1
		c0.4-0.2,0.8-0.4,1.2-0.6c0.5-0.2,1-0.4,1.5-0.6c0-0.1,0.1-0.2,0.1-0.4c0-0.1,0-0.3,0.1-0.3c0.1,0,0.1,0,0.2,0c0-0.2,0-0.4,0.1-0.6
		c0-0.1,0-0.2,0-0.2L-60.5-9l-0.1-0.1l0,0c0-0.1-0.1-0.1-0.1-0.2c-0.1-0.1-0.1-0.2-0.1-0.3c0-0.1-0.1-0.2-0.1-0.3
		c0-0.1-0.1-0.2-0.1-0.2c-0.1-0.2-0.1-0.4-0.1-0.7c0-0.1,0-0.2,0.1-0.2h0.1c0-0.4,0-0.9,0-1.3c0-0.1,0-0.3,0-0.4
		c0-0.1,0.1-0.3,0.2-0.4c0.1-0.1,0.2-0.2,0.3-0.3l0.1-0.1c0.1-0.1,0.2-0.2,0.3-0.2c0.1-0.1,0.2-0.1,0.4-0.1c0.2-0.1,0.4-0.1,0.6-0.2
		c0.1,0,0.3-0.1,0.4-0.1c0.1,0,0.3-0.1,0.5,0c0,0.1-0.1,0.1-0.1,0.1s-0.1,0.1-0.1,0.2c0,0.1,0.1,0.1,0.1,0.1l0.1,0.1l0,0
		c0.2,0.1,0.4,0.3,0.5,0.5c0.1,0.1,0.2,0.2,0.2,0.3c0,0.1,0,0.3,0,0.4c0,0.4,0,0.9,0,1.3c0.2,0,0.1,0.1,0.1,0.3c0,0.3,0,0.5-0.1,0.7
		c0,0.1-0.1,0.1-0.1,0.2c0,0.1,0,0.1,0,0.2c-0.1,0.3-0.1,0.5-0.3,0.7l-0.1,0.1c0,0.1,0,0.3,0,0.4c0,0.2,0,0.3,0,0.4h0.1
		c0.2,0,0.1,0.2,0.2,0.4c0,0.1,0.1,0.1,0.1,0.2c0,0.1,0.1,0.1,0.1,0.2c0.8,0.3,1.7,0.7,2.5,1.1c0.1,0.1,0.2,0.1,0.3,0.2l0,0
		C-54.4-6-54.3-5.8-54.2-5.5L-54.2-5.5z"/>
</g>
<path id="XMLID_32_" class="st9" d="M-30.3-9.3l-10,6.4c-0.5,0.3-1.2,0-1.2-0.6v-12.8c0-0.6,0.7-1,1.2-0.6l10,6.4
	C-29.8-10.2-29.8-9.6-30.3-9.3z"/>
<path class="st7" d="M-5.9,13c0,0.7-0.6,1.3-1.3,1.3h-11.7c-0.7,0-1.3-0.6-1.3-1.3V1.4c0-0.7,0.6-1.3,1.3-1.3h11.7
	c0.7,0,1.3,0.6,1.3,1.3V13z"/>
<path class="st0" d="M-15.9,7.6c0,0.1,0.1,0.3,0.2,0.4l0.3,0.5c0,0,0,0,0,0.1c0.3,0.4,0.7,0.6,1.2,0.8c0.2,0.1,0.5,0.1,0.7,0.2
	c0.1,0,0.1,0,0.2,0c0.1,0,0.1,0,0.2,0l0.4,0l0.8,0l0.5,0L-8,7.7c0.3-0.2,0.5-0.6,0.3-1l-1.8-3.4c-0.2-0.3-0.6-0.5-1-0.3l-1.3,0.7
	l-0.1-0.2c-0.1-0.2-0.4-0.3-0.7-0.2l-2,1.1c-0.2,0.1-0.3,0.4-0.2,0.7l0.1,0.2L-16,6.1V7C-16,7-16,7.4-15.9,7.6z"/>
<g>
	<path class="st7" d="M-10.1,7c0-0.5-0.2-1-0.5-1.3l-0.6,1.9L-10.1,7z"/>
	<path class="st7" d="M-10.7,8.4l-1.9-0.6l0.6,1.1C-11.5,8.9-11,8.7-10.7,8.4z"/>
</g>
<g>
	<path class="st7" d="M-10.7,8.4c0.4-0.3,0.6-0.8,0.6-1.4l-1.8,1L-10.7,8.4z"/>
	<path class="st7" d="M-11.9,5l1,1.8l0.4-1.2C-10.9,5.3-11.4,5.1-11.9,5z"/>
</g>
<path class="st7" d="M-13.2,5.5l1.9,0.6l-0.6-1.1C-12.4,5-12.9,5.2-13.2,5.5L-13.2,5.5z"/>
<path class="st7" d="M-13.9,6.9l1.8-1l-1.2-0.4C-13.6,5.9-13.8,6.4-13.9,6.9L-13.9,6.9z"/>
<path class="st7" d="M-13.9,6.9c0,0.5,0.2,1,0.5,1.3l0.6-1.9L-13.9,6.9z"/>
<path class="st7" d="M-12,8.8L-13,7l-0.4,1.2C-13,8.6-12.5,8.8-12,8.8L-12,8.8z"/>
<g>
	<path class="st0" d="M-11,8.6c0,0-0.1,0-0.1,0.1c0,0,0,0,0,0l0,0c0,0-0.1,0-0.1,0c0,0,0,0,0,0c-0.1,0-0.2,0.1-0.2,0.1l0,0
		c0,0-0.1,0-0.1,0l0,0c0,0-0.1,0-0.1,0l0,0c0,0-0.1,0-0.1,0c0,0,0,0,0,0c0,0,0,0,0,0c0,0-0.1,0-0.1,0c0,0,0,0,0,0c0,0,0,0,0,0l0,0
		l0,0l0,0l0,0l0,0c0,0,0,0,0,0c0,0,0,0,0,0c0,0,0,0-0.1,0c0,0,0,0,0,0l-0.1,0c0,0,0,0,0,0l0,0c0,0,0,0-0.1,0l0,0c0,0,0,0,0,0l0,0
		c0,0,0,0,0,0c0,0,0,0,0,0l0,0c0,0,0,0,0,0c0,0,0,0-0.1,0l0,0c0,0,0,0,0,0c0,0,0,0-0.1,0c0,0,0,0,0,0c0,0,0,0,0,0l0,0c0,0,0,0-0.1,0
		c0,0,0,0,0,0c0,0,0,0,0,0c0,0,0,0-0.1,0l0,0c0,0-0.1,0-0.1,0c0,0,0,0,0,0l0,0c0,0-0.1,0-0.1,0l0,0c-0.1,0-0.1-0.1-0.2-0.1
		c0,0,0,0,0,0c0,0,0,0,0,0c0,0,0,0-0.1-0.1c0,0,0,0-0.1-0.1c0,0,0,0,0,0c0,0,0,0,0,0c0,0,0,0,0,0l0,0c0,0,0,0,0,0c0,0,0,0,0,0l0,0
		l0,0l0,0l0,0c0,0,0,0,0,0c0,0,0,0-0.1-0.1c0,0,0,0,0,0l0,0c0,0,0,0-0.1-0.1l0,0c0,0,0,0,0,0c0,0,0,0,0-0.1c0,0,0,0,0,0c0,0,0,0,0,0
		c0,0,0-0.1-0.1-0.1c0,0,0-0.1-0.1-0.1c0,0,0,0,0,0l0,0c0,0,0-0.1,0-0.1c0,0,0,0,0,0c0-0.1-0.1-0.2-0.1-0.2l0,0c0,0,0-0.1,0-0.1
		c0,0,0,0,0,0c0,0,0-0.1,0-0.1c0,0,0,0,0,0c0,0,0-0.1,0-0.1c0,0,0,0,0,0c0,0,0,0,0,0c0,0,0-0.1,0-0.1c0,0,0,0,0,0c0,0,0,0,0,0l0,0
		c0,0,0,0,0,0l0,0l0,0c0,0,0,0,0,0c0,0,0,0,0,0c0,0,0,0,0,0c0,0,0,0,0-0.1c0,0,0,0,0,0c0,0,0,0,0-0.1c0,0,0,0,0,0l0,0c0,0,0,0,0-0.1
		c0,0,0,0,0,0l0,0c0,0,0,0,0,0c0,0,0,0,0,0l0,0c0,0,0,0,0,0c0,0,0,0,0,0c0,0,0,0,0,0c0,0,0,0,0,0c0,0,0,0,0-0.1c0,0,0,0,0,0
		c0,0,0,0,0,0c0,0,0-0.1,0-0.1l0,0c0.1-0.1,0.2-0.3,0.3-0.4l0,0c0,0,0,0,0.1-0.1c0,0,0,0,0,0c0,0,0,0,0,0c0,0,0,0,0-0.1c0,0,0,0,0,0
		c0,0,0,0,0,0c0,0,0,0,0,0l0,0l0,0l0,0c0.1-0.1,0.2-0.2,0.4-0.3c0.2-0.1,0.5-0.2,0.8-0.2l0,0c0.1,0,0.1,0,0.2,0c0,0,0,0,0,0l0,0l0,0
		c0,0,0,0,0,0c0,0,0,0,0,0l0,0c0,0,0,0,0,0l0,0c0,0,0,0,0,0l0,0c0,0,0,0,0.1,0c0,0,0,0,0,0l0,0c0,0,0,0,0.1,0c0,0,0,0,0,0l0,0
		c0,0,0,0,0,0c0,0,0,0,0,0l0,0c0,0,0,0,0,0c0,0,0,0,0.1,0c0,0,0,0,0,0c0,0,0,0,0,0c0,0,0.1,0,0.1,0c0,0,0,0,0,0l0,0
		c0.2,0.1,0.3,0.2,0.5,0.3c0,0,0,0,0,0c0,0,0,0,0.1,0.1c0,0,0,0,0,0c0,0,0,0,0,0l0,0c0,0,0,0,0,0c0,0,0,0,0,0l0,0l0,0c0,0,0,0,0,0
		l0,0l0,0c0,0,0,0,0,0c0,0,0,0,0.1,0.1c0,0,0,0,0,0c0,0,0,0,0.1,0.1l0,0c0,0,0,0,0,0c0,0,0,0,0,0.1c0,0,0,0,0,0c0,0,0,0,0,0
		c0,0,0,0.1,0.1,0.1c0,0,0,0.1,0.1,0.1c0,0,0,0,0,0l0,0c0,0,0,0.1,0,0.1l0,0c0,0,0,0,0,0c0,0.1,0.1,0.2,0.1,0.2l0,0c0,0,0,0.1,0,0.1
		l0,0c0,0,0,0.1,0,0.1l0,0c0,0,0,0,0,0c0,0,0,0.1,0,0.1c0,0,0,0,0,0c0,0,0,0,0,0c0,0,0,0.1,0,0.1c0,0,0,0,0,0c0,0,0,0,0,0l0,0l0,0
		c0,0,0,0,0,0c0,0,0,0,0,0c0,0,0,0,0,0l0,0c0,0,0,0,0,0l0,0c0,0,0,0,0,0.1c0,0,0,0,0,0l0,0c0,0,0,0,0,0.1c0,0,0,0,0,0l0,0
		c0,0,0,0,0,0c0,0,0,0,0,0l0,0c0,0,0,0,0,0c0,0,0,0,0,0.1c0,0,0,0,0,0c0,0,0,0,0,0c0,0,0,0.1,0,0.1l0,0c-0.1,0.2-0.2,0.3-0.3,0.5
		l0,0c0,0,0,0-0.1,0.1c0,0,0,0,0,0c0,0,0,0,0,0l0,0c0,0,0,0,0,0c0,0,0,0,0,0l0,0l0,0c0,0,0,0,0,0l0,0c0,0,0,0,0,0c0,0,0,0-0.1,0.1
		l0,0c0,0,0,0-0.1,0.1l0,0c0,0,0,0,0,0c0,0,0,0-0.1,0c0,0,0,0,0,0C-10.9,8.6-10.9,8.6-11,8.6C-11,8.6-11,8.6-11,8.6z M-12,8.8
		L-12,8.8c0.1,0,0.1,0,0.2,0c0,0,0,0,0.1,0c0,0,0,0,0,0c0,0,0.1,0,0.1,0c0,0,0.1,0,0.1,0c0,0,0,0,0.1,0c0,0,0.1,0,0.1,0
		c0,0,0,0,0.1,0l0,0c0,0,0.1,0,0.1,0c0.1,0,0.1,0,0.1-0.1l0,0c0,0,0,0,0,0c0,0,0,0,0,0c0,0,0.1,0,0.1-0.1c0,0,0,0,0,0l0,0
		c0,0,0,0,0,0l0,0l0.1-0.1l-1.8-0.5L-12,8.8z M-10.7,8.3L-10.7,8.3C-10.6,8.3-10.6,8.3-10.7,8.3C-10.6,8.3-10.6,8.3-10.7,8.3
		C-10.6,8.3-10.6,8.3-10.7,8.3L-10.7,8.3c0.1-0.1,0.1-0.2,0.2-0.2c0,0,0,0,0-0.1c0,0,0-0.1,0.1-0.1c0,0,0,0,0-0.1c0,0,0,0,0-0.1l0,0
		l0,0c0,0,0,0,0-0.1c0,0,0-0.1,0-0.1c0,0,0,0,0,0c0,0,0,0,0,0c0,0,0-0.1,0-0.1c0,0,0,0,0,0c0,0,0,0,0,0c0-0.1,0-0.1,0-0.2
		c0,0,0,0,0,0c0,0,0,0,0,0c0,0,0-0.1,0-0.1l0-0.1l-1.8,1L-10.7,8.3z M-13.3,8.2L-13.3,8.2C-13.3,8.3-13.3,8.3-13.3,8.2
		C-13.3,8.3-13.3,8.3-13.3,8.2C-13.3,8.3-13.3,8.3-13.3,8.2L-13.3,8.2c0.1,0.1,0.2,0.1,0.2,0.2c0,0,0,0,0.1,0c0,0,0.1,0,0.1,0.1
		c0,0,0,0,0.1,0c0,0,0.1,0,0.1,0.1c0,0,0,0,0,0c0,0,0,0,0,0c0,0,0.1,0,0.1,0l0,0c0,0,0,0,0.1,0c0,0,0.1,0,0.1,0c0,0,0,0,0,0
		c0,0,0,0,0,0c0.1,0,0.2,0.1,0.3,0.1l0.1,0L-13,7.1L-13.3,8.2z M-11.1,7.5l1-0.6l0,0c0,0,0-0.1,0-0.2c0,0,0,0,0,0c0-0.1,0-0.1,0-0.2
		c0,0,0,0,0,0c0,0,0,0,0,0c0,0,0-0.1,0-0.1l0,0c0,0,0,0,0,0c0,0,0,0,0,0c0,0,0-0.1-0.1-0.1c0,0,0,0,0,0l0,0c0-0.1,0-0.1-0.1-0.2
		c0,0-0.1-0.1-0.1-0.1c0,0,0,0,0,0l0,0c0,0,0,0,0,0l0,0l-0.1-0.1L-11.1,7.5z M-13,7l0.4,0.8l0.7,0.2l0.7-0.4l0.2-0.7l-0.4-0.7
		L-12,5.9l-0.8,0.4L-13,7z M-13.8,7c0,0,0,0.1,0,0.2c0,0,0,0,0,0c0,0.1,0,0.1,0,0.2c0,0,0,0,0,0c0,0,0,0,0,0c0,0,0,0.1,0,0.1l0,0
		c0,0,0,0,0,0c0,0,0,0,0,0c0,0,0,0.1,0.1,0.1c0,0,0,0,0,0l0,0c0,0.1,0,0.1,0.1,0.2c0,0,0.1,0.1,0.1,0.1c0,0,0,0,0,0l0,0c0,0,0,0,0,0
		c0,0,0,0,0,0l0.1,0.1l0.5-1.8L-13.8,7L-13.8,7z M-10.9,6.8l0.3-1.2l0,0c0,0,0,0,0,0c0,0,0,0,0,0c0,0,0,0,0,0l0,0c0,0-0.1,0-0.1-0.1
		c0,0,0,0-0.1,0c0,0-0.1,0-0.1-0.1c0,0,0,0-0.1,0c0,0,0,0-0.1,0l0,0l0,0c0,0,0,0-0.1,0c0,0-0.1,0-0.1,0c0,0,0,0,0,0c0,0,0,0,0,0
		c0,0-0.1,0-0.1,0c0,0,0,0,0,0c0,0,0,0,0,0c-0.1,0-0.1,0-0.2,0c0,0,0,0,0,0c0,0,0,0,0,0c0,0-0.1,0-0.1,0l-0.1,0L-10.9,6.8z
		 M-13.1,5.4C-13.1,5.4-13.1,5.4-13.1,5.4L-13.1,5.4l-0.1,0.1l1.8,0.6l-0.6-1l0,0c-0.1,0-0.1,0-0.2,0c0,0,0,0-0.1,0c0,0,0,0,0,0l0,0
		c0,0-0.1,0-0.1,0c0,0-0.1,0-0.1,0c0,0,0,0-0.1,0c0,0-0.1,0-0.1,0c0,0,0,0-0.1,0l0,0c0,0-0.1,0-0.1,0c0,0-0.1,0-0.1,0.1c0,0,0,0,0,0
		c0,0,0,0-0.1,0l0,0C-12.9,5.3-13,5.4-13.1,5.4L-13.1,5.4L-13.1,5.4z M-13.3,5.6C-13.3,5.6-13.3,5.6-13.3,5.6
		C-13.3,5.6-13.3,5.6-13.3,5.6C-13.3,5.6-13.3,5.6-13.3,5.6c-0.1,0.1-0.1,0.1-0.1,0.1c0,0,0,0,0,0.1c0,0,0,0-0.1,0.1c0,0,0,0,0,0.1
		c0,0,0,0.1,0,0.1l0,0c0,0,0,0,0,0.1c0,0,0,0,0,0.1l0,0c0,0,0,0,0,0c0,0,0,0,0,0c0,0,0,0.1,0,0.1c0,0,0,0,0,0c0,0,0,0,0,0
		c0,0.1,0,0.1,0,0.2c0,0,0,0,0,0c0,0,0,0.1,0,0.1l0,0.1l1.8-1L-13.3,5.6L-13.3,5.6z"/>
</g>
<circle class="st7" cx="-10.4" cy="4.1" r="0.4"/>
<g>
	<path class="st7" d="M-10.9,8.8C-12,9.4-13.3,9-13.8,8c-0.6-1-0.2-2.3,0.9-2.9s2.3-0.2,2.9,0.9S-9.9,8.3-10.9,8.8z M-12.9,5.2
		c-1,0.5-1.3,1.7-0.8,2.7S-12,9.2-11,8.7C-10,8.2-9.7,7-10.2,6C-10.7,5-11.9,4.7-12.9,5.2z"/>
</g>
<path class="st10" d="M-15.9,8.2c0.1,0.2,0.2,0.4,0.3,0.6L-16,8C-16,8.1-16,8.1-15.9,8.2z"/>
<path class="st0" d="M-7.9,7.9C-8,7.9-8,8.4-8.1,8.7c-0.1,0.2-0.3,0.4-0.4,0.6c-0.4,0.3-0.8,0.5-1.3,0.6c-0.1,0-0.1,0-0.2,0l-0.2,0
	l-0.4,0l-0.8,0l-0.3,0l-0.5,0l-0.8,0l-0.4,0c-0.1,0-0.1,0-0.2,0c-0.1,0-0.1,0-0.2,0c-0.2,0-0.5-0.1-0.7-0.2
	c-0.4-0.2-0.8-0.4-1.2-0.8c0,0,0,0,0-0.1c-0.1-0.2-0.2-0.4-0.3-0.6c0,0,0-0.1,0-0.1c-0.1-0.3-0.2-0.8-0.2-0.9V6.2V5.7
	c0-0.7-0.6-1.4-1.3-1.4c-0.4,0-0.8,0-1,0.5c-0.1,0.2-0.1,0.4,0,0.5c0.1,0.1,0.3,0.1,0.5,0c0.1-0.1,0.3-0.2,0.5-0.2
	c0.4,0,0.7,0.3,0.7,0.7v1.4c0,0.1-0.1,1.1,0.7,2.2c0.4,0.4,0.9,0.7,1.3,0.9c0.5,0.2,0.9,0.2,1,0.2c0.1,0,0.1,0,0.2,0
	c0.1,0,0.1,0,0.2,0l0.4,0l0.1,0l0.7,0l0.8,0l0.8,0l0.4,0c0.1,0,0.1,0,0.2,0c0.1,0,0.1,0,0.2,0c0.6-0.1,1.1-0.4,1.5-0.8
	C-8,9-7.6,7.9-7.9,7.9z"/>
<path class="st0" d="M-14.7,11.1c0.1,0.1,0.3,0.1,0.4,0.1c0.1,0,0.3,0,0.4-0.1c0.1-0.1,0.2-0.1,0.3-0.2c0,0,0.1-0.1,0.1-0.2
	c0-0.1,0.2-0.1,0.2,0c0,0.1,0,0.2,0,0.3c-0.1,0.2-0.2,0.3-0.4,0.4c-0.2,0.1-0.4,0.1-0.5,0C-14.5,11.3-14.6,11.2-14.7,11.1z"/>
<path class="st0" d="M-11,10.9c0.1,0.1,0.3,0.1,0.4,0.1c0.1,0,0.3,0,0.4-0.1c0.1-0.1,0.2-0.1,0.3-0.2c0,0,0.1-0.1,0.1-0.2
	c0-0.1,0.2-0.1,0.2,0c0,0.1,0,0.2,0,0.3c-0.1,0.2-0.2,0.3-0.4,0.4c-0.2,0.1-0.4,0.1-0.5,0C-10.8,11.1-10.9,11-11,10.9z"/>
<g>
	<path class="st11" d="M-5.9-4c0,0.7-0.6,1.3-1.3,1.3h-11.7c-0.7,0-1.3-0.6-1.3-1.3v-11.7c0-0.7,0.6-1.3,1.3-1.3h11.7
		c0.7,0,1.3,0.6,1.3,1.3V-4z"/>
	<g>
		<g>
			<path class="st12" d="M-15.9-9.4c0,0.1,0.1,0.3,0.2,0.4l0.3,0.5c0,0,0,0,0,0.1c0.3,0.4,0.7,0.6,1.2,0.8c0.2,0.1,0.5,0.1,0.7,0.2
				c0.1,0,0.1,0,0.2,0c0.1,0,0.1,0,0.2,0l0.4,0l0.8,0l0.5,0L-8-9.4c0.3-0.2,0.5-0.6,0.3-1l-1.8-3.4c-0.2-0.3-0.6-0.5-1-0.3l-1.3,0.7
				l-0.1-0.2c-0.1-0.2-0.4-0.3-0.7-0.2l-2,1.1c-0.2,0.1-0.3,0.4-0.2,0.7l0.1,0.2L-16-11v0.9C-16-10-16-9.7-15.9-9.4z"/>
			<g>
				<g>
					<g>
						<path class="st11" d="M-10.1-10.1c0-0.5-0.2-1-0.5-1.3l-0.6,1.9L-10.1-10.1z"/>
						<path class="st11" d="M-10.7-8.7l-1.9-0.6l0.6,1.1C-11.5-8.2-11-8.4-10.7-8.7z"/>
					</g>
				</g>
				<g>
					<g>
						<path class="st11" d="M-10.7-8.7c0.4-0.3,0.6-0.8,0.6-1.4l-1.8,1L-10.7-8.7z"/>
						<path class="st11" d="M-11.9-12l1,1.8l0.4-1.2C-10.9-11.8-11.4-12-11.9-12z"/>
					</g>
				</g>
				<path class="st11" d="M-13.2-11.5l1.9,0.6l-0.6-1.1C-12.4-12-12.9-11.9-13.2-11.5L-13.2-11.5z"/>
				<path class="st11" d="M-13.9-10.2l1.9-1l-1.2-0.4C-13.6-11.2-13.9-10.7-13.9-10.2L-13.9-10.2z"/>
				<path class="st11" d="M-13.9-10.2c0,0.5,0.2,1,0.5,1.3l0.6-1.9L-13.9-10.2z"/>
				<path class="st11" d="M-12-8.2l-1-1.8l-0.4,1.2C-13-8.4-12.5-8.2-12-8.2L-12-8.2z"/>
				<g>
					<path class="st12" d="M-11-8.4c0,0-0.1,0-0.1,0.1c0,0,0,0,0,0l0,0c0,0-0.1,0-0.1,0c0,0,0,0,0,0c-0.1,0-0.2,0.1-0.2,0.1l0,0
						c0,0-0.1,0-0.1,0l0,0c0,0-0.1,0-0.1,0l0,0c0,0-0.1,0-0.1,0c0,0,0,0,0,0c0,0,0,0,0,0c0,0-0.1,0-0.1,0c0,0,0,0,0,0c0,0,0,0,0,0
						l0,0l0,0l0,0l0,0l0,0c0,0,0,0,0,0c0,0,0,0,0,0c0,0,0,0-0.1,0c0,0,0,0,0,0l-0.1,0c0,0,0,0,0,0l0,0c0,0,0,0-0.1,0l0,0
						c0,0,0,0,0,0l0,0c0,0,0,0,0,0c0,0,0,0,0,0l0,0c0,0,0,0,0,0c0,0,0,0-0.1,0l0,0c0,0,0,0,0,0c0,0,0,0-0.1,0c0,0,0,0,0,0
						c0,0,0,0,0,0l0,0c0,0,0,0-0.1,0c0,0,0,0,0,0c0,0,0,0,0,0c0,0,0,0-0.1,0l0,0c0,0-0.1,0-0.1,0c0,0,0,0,0,0l0,0c0,0-0.1,0-0.1,0
						l0,0c-0.1,0-0.1-0.1-0.2-0.1c0,0,0,0,0,0c0,0,0,0,0,0c0,0,0,0-0.1-0.1c0,0,0,0-0.1-0.1c0,0,0,0,0,0c0,0,0,0,0,0c0,0,0,0,0,0
						l0,0c0,0,0,0,0,0c0,0,0,0,0,0l0,0l0,0l0,0l0,0c0,0,0,0,0,0c0,0,0,0-0.1-0.1c0,0,0,0,0,0l0,0c0,0,0,0-0.1-0.1l0,0c0,0,0,0,0,0
						c0,0,0,0,0-0.1c0,0,0,0,0,0c0,0,0,0,0,0c0,0,0-0.1-0.1-0.1c0,0,0-0.1-0.1-0.1c0,0,0,0,0,0l0,0c0,0,0-0.1,0-0.1c0,0,0,0,0,0
						c0-0.1-0.1-0.2-0.1-0.2l0,0c0,0,0-0.1,0-0.1c0,0,0,0,0,0c0,0,0-0.1,0-0.1c0,0,0,0,0,0c0,0,0-0.1,0-0.1c0,0,0,0,0,0c0,0,0,0,0,0
						c0,0,0-0.1,0-0.1c0,0,0,0,0,0c0,0,0,0,0,0l0,0c0,0,0,0,0,0l0,0l0,0c0,0,0,0,0,0c0,0,0,0,0,0c0,0,0,0,0,0c0,0,0,0,0-0.1
						c0,0,0,0,0,0c0,0,0,0,0-0.1c0,0,0,0,0,0l0,0c0,0,0,0,0-0.1c0,0,0,0,0,0l0,0c0,0,0,0,0,0c0,0,0,0,0,0l0,0c0,0,0,0,0,0
						c0,0,0,0,0,0c0,0,0,0,0,0c0,0,0,0,0,0c0,0,0,0,0-0.1c0,0,0,0,0,0c0,0,0,0,0,0c0,0,0-0.1,0-0.1l0,0c0.1-0.1,0.2-0.3,0.3-0.4l0,0
						c0,0,0,0,0.1-0.1c0,0,0,0,0,0c0,0,0,0,0,0c0,0,0,0,0-0.1c0,0,0,0,0,0c0,0,0,0,0,0c0,0,0,0,0,0l0,0l0,0l0,0
						c0.1-0.1,0.2-0.2,0.4-0.3c0.2-0.1,0.5-0.2,0.8-0.2l0,0c0.1,0,0.1,0,0.2,0c0,0,0,0,0,0l0,0l0,0c0,0,0,0,0,0c0,0,0,0,0,0l0,0
						c0,0,0,0,0,0l0,0c0,0,0,0,0,0l0,0c0,0,0,0,0.1,0c0,0,0,0,0,0l0,0c0,0,0,0,0.1,0c0,0,0,0,0,0l0,0c0,0,0,0,0,0c0,0,0,0,0,0l0,0
						c0,0,0,0,0,0c0,0,0,0,0.1,0c0,0,0,0,0,0c0,0,0,0,0,0c0,0,0.1,0,0.1,0c0,0,0,0,0,0l0,0c0.2,0.1,0.3,0.2,0.5,0.3c0,0,0,0,0,0
						c0,0,0,0,0.1,0.1c0,0,0,0,0,0c0,0,0,0,0,0l0,0c0,0,0,0,0,0c0,0,0,0,0,0l0,0l0,0c0,0,0,0,0,0l0,0l0,0c0,0,0,0,0,0
						c0,0,0,0,0.1,0.1c0,0,0,0,0,0c0,0,0,0,0.1,0.1l0,0c0,0,0,0,0,0c0,0,0,0,0,0.1c0,0,0,0,0,0c0,0,0,0,0,0c0,0,0,0.1,0.1,0.1
						c0,0,0,0.1,0.1,0.1c0,0,0,0,0,0l0,0c0,0,0,0.1,0,0.1l0,0c0,0,0,0,0,0c0,0.1,0.1,0.2,0.1,0.2l0,0c0,0,0,0.1,0,0.1l0,0
						c0,0,0,0.1,0,0.1l0,0c0,0,0,0,0,0c0,0,0,0.1,0,0.1c0,0,0,0,0,0c0,0,0,0,0,0c0,0,0,0.1,0,0.1c0,0,0,0,0,0c0,0,0,0,0,0l0,0l0,0
						c0,0,0,0,0,0c0,0,0,0,0,0c0,0,0,0,0,0l0,0c0,0,0,0,0,0l0,0c0,0,0,0,0,0.1c0,0,0,0,0,0l0,0c0,0,0,0,0,0.1c0,0,0,0,0,0l0,0
						c0,0,0,0,0,0c0,0,0,0,0,0l0,0c0,0,0,0,0,0c0,0,0,0,0,0.1c0,0,0,0,0,0c0,0,0,0,0,0c0,0,0,0.1,0,0.1l0,0
						c-0.1,0.2-0.2,0.3-0.3,0.5l0,0c0,0,0,0-0.1,0.1c0,0,0,0,0,0c0,0,0,0,0,0l0,0c0,0,0,0,0,0c0,0,0,0,0,0l0,0l0,0c0,0,0,0,0,0l0,0
						c0,0,0,0,0,0c0,0,0,0-0.1,0.1l0,0c0,0,0,0-0.1,0.1l0,0c0,0,0,0,0,0c0,0,0,0-0.1,0c0,0,0,0,0,0C-10.9-8.5-10.9-8.5-11-8.4
						C-11-8.4-11-8.4-11-8.4z M-12-8.2L-12-8.2c0.1,0,0.1,0,0.2,0c0,0,0,0,0.1,0c0,0,0,0,0,0c0,0,0.1,0,0.1,0c0,0,0.1,0,0.1,0
						c0,0,0,0,0.1,0c0,0,0.1,0,0.1,0c0,0,0,0,0.1,0l0,0c0,0,0.1,0,0.1,0c0.1,0,0.1,0,0.1-0.1l0,0c0,0,0,0,0,0c0,0,0,0,0,0
						c0,0,0.1,0,0.1-0.1c0,0,0,0,0,0l0,0c0,0,0,0,0,0l0,0l0.1-0.1l-1.8-0.5L-12-8.2z M-10.7-8.7L-10.7-8.7
						C-10.6-8.8-10.6-8.8-10.7-8.7C-10.6-8.8-10.6-8.8-10.7-8.7C-10.6-8.8-10.6-8.8-10.7-8.7L-10.7-8.7c0.1-0.1,0.1-0.2,0.2-0.2
						c0,0,0,0,0-0.1c0,0,0-0.1,0.1-0.1c0,0,0,0,0-0.1c0,0,0,0,0-0.1l0,0l0,0c0,0,0,0,0-0.1c0,0,0-0.1,0-0.1c0,0,0,0,0,0c0,0,0,0,0,0
						c0,0,0-0.1,0-0.1c0,0,0,0,0,0c0,0,0,0,0,0c0-0.1,0-0.1,0-0.2c0,0,0,0,0,0c0,0,0,0,0,0c0,0,0-0.1,0-0.1l0-0.1l-1.8,1L-10.7-8.7z
						 M-13.3-8.8L-13.3-8.8C-13.3-8.8-13.3-8.8-13.3-8.8C-13.3-8.8-13.3-8.8-13.3-8.8C-13.3-8.8-13.3-8.8-13.3-8.8L-13.3-8.8
						c0.1,0.1,0.2,0.1,0.2,0.2c0,0,0,0,0.1,0c0,0,0.1,0,0.1,0.1c0,0,0,0,0.1,0c0,0,0.1,0,0.1,0.1c0,0,0,0,0,0c0,0,0,0,0,0
						c0,0,0.1,0,0.1,0l0,0c0,0,0,0,0.1,0c0,0,0.1,0,0.1,0c0,0,0,0,0,0c0,0,0,0,0,0c0.1,0,0.2,0.1,0.3,0.1l0.1,0L-13-10L-13.3-8.8z
						 M-11.1-9.5l1-0.6l0,0c0,0,0-0.1,0-0.2c0,0,0,0,0,0c0-0.1,0-0.1,0-0.2c0,0,0,0,0,0c0,0,0,0,0,0c0,0,0-0.1,0-0.1l0,0
						c0,0,0,0,0,0c0,0,0,0,0,0c0,0,0-0.1-0.1-0.1c0,0,0,0,0,0l0,0c0-0.1,0-0.1-0.1-0.2c0,0-0.1-0.1-0.1-0.1c0,0,0,0,0,0l0,0
						c0,0,0,0,0,0l0,0l-0.1-0.1L-11.1-9.5z M-13-10l0.4,0.8l0.7,0.2l0.7-0.4l0.2-0.7l-0.4-0.7l-0.7-0.2l-0.8,0.4L-13-10z
						 M-13.8-10.1c0,0,0,0.1,0,0.2c0,0,0,0,0,0c0,0.1,0,0.1,0,0.2c0,0,0,0,0,0c0,0,0,0,0,0c0,0,0,0.1,0,0.1l0,0c0,0,0,0,0,0
						c0,0,0,0,0,0c0,0,0,0.1,0.1,0.1c0,0,0,0,0,0l0,0c0,0.1,0,0.1,0.1,0.2c0,0,0.1,0.1,0.1,0.1c0,0,0,0,0,0l0,0c0,0,0,0,0,0
						c0,0,0,0,0,0l0.1,0.1l0.5-1.8L-13.8-10.1L-13.8-10.1z M-10.9-10.2l0.3-1.2l0,0c0,0,0,0,0,0c0,0,0,0,0,0c0,0,0,0,0,0l0,0
						c0,0-0.1,0-0.1-0.1c0,0,0,0-0.1,0c0,0-0.1,0-0.1-0.1c0,0,0,0-0.1,0c0,0,0,0-0.1,0l0,0l0,0c0,0,0,0-0.1,0c0,0-0.1,0-0.1,0
						c0,0,0,0,0,0c0,0,0,0,0,0c0,0-0.1,0-0.1,0c0,0,0,0,0,0c0,0,0,0,0,0c-0.1,0-0.1,0-0.2,0c0,0,0,0,0,0c0,0,0,0,0,0
						c0,0-0.1,0-0.1,0l-0.1,0L-10.9-10.2z M-13.1-11.6C-13.1-11.6-13.1-11.6-13.1-11.6L-13.1-11.6l-0.1,0.1l1.8,0.6l-0.6-1l0,0
						c-0.1,0-0.1,0-0.2,0c0,0,0,0-0.1,0c0,0,0,0,0,0l0,0c0,0-0.1,0-0.1,0c0,0-0.1,0-0.1,0c0,0,0,0-0.1,0c0,0-0.1,0-0.1,0
						c0,0,0,0-0.1,0l0,0c0,0-0.1,0-0.1,0c0,0-0.1,0-0.1,0.1c0,0,0,0,0,0c0,0,0,0-0.1,0l0,0C-12.9-11.7-13-11.7-13.1-11.6L-13.1-11.6
						L-13.1-11.6z M-13.3-11.5C-13.3-11.5-13.3-11.5-13.3-11.5C-13.3-11.5-13.3-11.5-13.3-11.5C-13.3-11.4-13.3-11.4-13.3-11.5
						c-0.1,0.1-0.1,0.1-0.1,0.1c0,0,0,0,0,0.1c0,0,0,0-0.1,0.1c0,0,0,0,0,0.1c0,0,0,0.1,0,0.1l0,0c0,0,0,0,0,0.1c0,0,0,0,0,0.1l0,0
						c0,0,0,0,0,0c0,0,0,0,0,0c0,0,0,0.1,0,0.1c0,0,0,0,0,0c0,0,0,0,0,0c0,0.1,0,0.1,0,0.2c0,0,0,0,0,0c0,0,0,0.1,0,0.1l0,0.1l1.8-1
						L-13.3-11.5L-13.3-11.5z"/>
				</g>
			</g>
			<circle class="st11" cx="-10.4" cy="-13" r="0.4"/>
			<g>
				<path class="st11" d="M-10.9-8.2c-1,0.6-2.3,0.2-2.9-0.9c-0.6-1-0.2-2.3,0.9-2.9s2.3-0.2,2.9,0.9S-9.9-8.8-10.9-8.2z
					 M-12.9-11.9c-1,0.5-1.3,1.7-0.8,2.7S-12-7.8-11-8.3s1.3-1.7,0.8-2.7C-10.7-12-11.9-12.4-12.9-11.9z"/>
			</g>
		</g>
		<path class="st10" d="M-15.9-8.9c0.1,0.2,0.2,0.4,0.3,0.6L-16-9C-16-9-16-8.9-15.9-8.9z"/>
		<path class="st12" d="M-15.9-8.9c0,0,0-0.1,0-0.1l-0.5-0.9c-0.2-0.3-0.1-0.8,0.3-1l0,0v-0.5c0-0.7-0.6-1.4-1.3-1.4
			c-0.4,0-0.8,0-1,0.5c-0.1,0.2-0.1,0.4,0,0.5c0.1,0.1,0.3,0.1,0.5,0c0.1-0.1,0.3-0.2,0.5-0.2c0.4,0,0.7,0.3,0.7,0.7v1.4
			c0,0.1-0.1,1.1,0.7,2.2c0.4,0.4,0.9,0.7,1.3,0.9l-0.8-1.4C-15.8-8.5-15.8-8.7-15.9-8.9z"/>
		<path class="st12" d="M-7.9-9.1C-8-9.1-8-8.6-8.1-8.4C-8.2-8.2-8.4-8-8.5-7.8c-0.4,0.3-0.8,0.5-1.3,0.6c-0.1,0-0.1,0-0.2,0l-0.2,0
			l-0.4,0l-0.8,0l-0.3,0l-1.2,0.6l0.7,0l0.8,0l0.8,0l0.4,0c0.1,0,0.1,0,0.2,0c0.1,0,0.1,0,0.2,0c0.6-0.1,1.1-0.4,1.5-0.8
			C-8-8-7.6-9.2-7.9-9.1z"/>
		<path class="st12" d="M-12.2-7.3l-0.8,0l-0.4,0c-0.1,0-0.1,0-0.2,0c-0.1,0-0.1,0-0.2,0c-0.2,0-0.5-0.1-0.7-0.2
			c-0.4-0.2-0.8-0.4-1.2-0.8c0,0,0,0,0-0.1l0.8,1.4c0.5,0.2,0.9,0.2,1,0.2c0.1,0,0.1,0,0.2,0c0.1,0,0.1,0,0.2,0l0.4,0l0.1,0l1.2-0.6
			L-12.2-7.3z"/>
		<path class="st12" d="M-16.5-9.9L-16-9c-0.1-0.3-0.2-0.8-0.2-0.9v-0.9l0,0C-16.5-10.7-16.6-10.2-16.5-9.9z"/>
		<path class="st12" d="M-14.7-6c0.1,0.1,0.3,0.1,0.4,0.1c0.1,0,0.3,0,0.4-0.1c0.1-0.1,0.2-0.1,0.3-0.2c0,0,0.1-0.1,0.1-0.2
			c0-0.1,0.2-0.1,0.2,0c0,0.1,0,0.2,0,0.3c-0.1,0.2-0.2,0.3-0.4,0.4c-0.2,0.1-0.4,0.1-0.5,0C-14.5-5.7-14.6-5.8-14.7-6z"/>
		<path class="st12" d="M-11-6.2c0.1,0.1,0.3,0.1,0.4,0.1c0.1,0,0.3,0,0.4-0.1c0.1-0.1,0.2-0.1,0.3-0.2c0,0,0.1-0.1,0.1-0.2
			c0-0.1,0.2-0.1,0.2,0c0,0.1,0,0.2,0,0.3C-9.8-6.2-9.9-6-10.1-5.9c-0.2,0.1-0.4,0.1-0.5,0C-10.8-5.9-10.9-6.1-11-6.2z"/>
	</g>
</g>
<g>
	<path id="XMLID_1084_" class="st0" d="M2.2,12.2V9.4c0,0,0-0.2-0.1-0.3C2,9,1.8,9,1.8,9h-1c0,0-0.4-0.1-0.6-0.3C0,8.4,0,8.1,0,8.1
		V6.4c0,0,0-0.5,0.3-0.7c0.3-0.2,0.6-0.3,0.6-0.3h0.8c0,0,0.1,0,0.3-0.1C2.2,5.2,2.2,5,2.2,5V2.6c0,0,0.1-1.1,0.9-1.8
		s1.6-0.8,1.6-0.8h2.9c0,0,0.5,0.1,0.7,0.4C8.5,0.7,8.5,1,8.5,1l0,1.6c0,0,0.1,0.4-0.3,0.7C7.9,3.6,7.6,3.6,7.6,3.6l-1.4,0
		c0,0-0.2,0-0.3,0.1C5.8,3.8,5.8,3.9,5.8,3.9l0,1.1c0,0,0,0.2,0.2,0.3c0.1,0.1,0.3,0.1,0.3,0.1h1.4c0,0,0.5,0,0.6,0.4
		c0.2,0.3,0.2,0.4,0.1,0.7C8.4,6.8,8.2,8,8.2,8S8.1,8.4,7.8,8.7C7.6,9,7.2,9,7.2,9H6.1c0,0-0.1,0-0.2,0.1C5.8,9.2,5.8,9.3,5.8,9.3
		s0,4.3,0,4.2s0,0.2-0.3,0.5c-0.3,0.3-0.5,0.3-0.5,0.3H3.4c0,0-0.4,0-0.4-0.5c0-0.5,0.4-0.5,0.4-0.5l1.1,0c0,0,0.2,0,0.2-0.1
		C4.8,13.1,4.8,13,4.8,13l0-3.9c0,0,0-0.4,0.3-0.7C5.5,8,5.8,8,5.8,8h1.1c0,0,0.2,0,0.3-0.3c0.2-0.5,0.3-1,0.3-1s0.1-0.2,0-0.4
		C7.4,6.3,7.2,6.4,7.2,6.4l-1.4,0c0,0-0.5,0-0.8-0.4C4.8,5.6,4.8,5.3,4.8,5.3V3.8c0,0,0-0.4,0.4-0.8c0.3-0.3,0.6-0.3,0.6-0.3h1.5
		c0,0,0.1,0,0.2-0.1c0.1-0.1,0.1-0.2,0.1-0.2V1.3c0,0,0-0.2-0.1-0.2C7.3,1,7.1,1,7.1,1H5c0,0-0.7,0.1-1.3,0.7
		C3.2,2.1,3.1,2.8,3.1,2.8v2.5c0,0,0,0.5-0.4,0.8C2.4,6.4,2.1,6.4,2.1,6.4l-0.9,0c0,0-0.2,0-0.3,0.1C0.9,6.6,0.9,6.7,0.9,6.7v1
		c0,0,0,0.2,0.1,0.3c0.2,0.1,0.3,0.1,0.3,0.1l0.8,0c0,0,0.4,0,0.7,0.3C3.2,8.8,3.1,9,3.1,9l0,3.1c0,0,0,0.4-0.5,0.4
		S2.2,12.2,2.2,12.2z"/>
	<g id="XMLID_1074_">
		<path id="XMLID_1081_" class="st0" d="M11.2,7.4H9.7c0,0.2,0,0.3,0.1,0.5C9.9,8,10,8.1,10.1,8.1c0.1,0.1,0.2,0.1,0.4,0.1
			c0.1,0,0.2,0,0.3,0c0.1,0,0.1-0.1,0.2-0.1C11,8.1,11.1,8,11.1,8c0.1-0.1,0.1-0.1,0.2-0.2c0,0,0.1-0.1,0.2-0.1c0.1,0,0.1,0,0.2,0.1
			c0,0,0.1,0.1,0.1,0.2c0,0.1,0,0.2-0.1,0.2c-0.1,0.1-0.1,0.2-0.2,0.3c-0.1,0.1-0.2,0.2-0.4,0.2c-0.2,0.1-0.4,0.1-0.6,0.1
			c-0.5,0-0.9-0.1-1.2-0.4C9.1,8,8.9,7.7,8.9,7.2C8.9,7,9,6.7,9,6.6s0.2-0.4,0.3-0.5c0.1-0.1,0.3-0.2,0.5-0.3
			c0.2-0.1,0.4-0.1,0.6-0.1c0.3,0,0.6,0.1,0.8,0.2c0.2,0.1,0.4,0.3,0.5,0.5c0.1,0.2,0.2,0.4,0.2,0.6c0,0.2-0.1,0.3-0.2,0.4
			C11.6,7.3,11.4,7.4,11.2,7.4z M9.7,6.9h1.4c0-0.3-0.1-0.5-0.2-0.6c-0.1-0.1-0.3-0.2-0.5-0.2c-0.2,0-0.3,0.1-0.5,0.2
			C9.8,6.5,9.7,6.7,9.7,6.9z"/>
		<path id="XMLID_1078_" class="st0" d="M14.5,7.4H13c0,0.2,0,0.3,0.1,0.5c0.1,0.1,0.2,0.2,0.3,0.3c0.1,0.1,0.2,0.1,0.4,0.1
			c0.1,0,0.2,0,0.3,0c0.1,0,0.1-0.1,0.2-0.1c0.1,0,0.1-0.1,0.2-0.1c0.1-0.1,0.1-0.1,0.2-0.2c0,0,0.1-0.1,0.2-0.1
			c0.1,0,0.1,0,0.2,0.1c0,0,0.1,0.1,0.1,0.2c0,0.1,0,0.2-0.1,0.2c-0.1,0.1-0.1,0.2-0.2,0.3c-0.1,0.1-0.2,0.2-0.4,0.2
			c-0.2,0.1-0.4,0.1-0.6,0.1c-0.5,0-0.9-0.1-1.2-0.4c-0.3-0.3-0.4-0.7-0.4-1.1c0-0.2,0-0.4,0.1-0.6s0.2-0.4,0.3-0.5s0.3-0.2,0.5-0.3
			c0.2-0.1,0.4-0.1,0.6-0.1c0.3,0,0.6,0.1,0.8,0.2c0.2,0.1,0.4,0.3,0.5,0.5c0.1,0.2,0.2,0.4,0.2,0.6c0,0.2-0.1,0.3-0.2,0.4
			C14.9,7.3,14.7,7.4,14.5,7.4z M13,6.9h1.4c0-0.3-0.1-0.5-0.2-0.6c-0.1-0.1-0.3-0.2-0.5-0.2c-0.2,0-0.3,0.1-0.5,0.2
			C13.1,6.5,13,6.7,13,6.9z"/>
		<path id="XMLID_1075_" class="st0" d="M17.8,8.3L17.8,8.3c-0.1,0-0.2,0.1-0.3,0.2c-0.1,0.1-0.2,0.1-0.3,0.2
			c-0.1,0-0.2,0.1-0.4,0.1c-0.2,0-0.4,0-0.5-0.1c-0.2-0.1-0.3-0.2-0.4-0.3c-0.1-0.1-0.2-0.3-0.3-0.5c-0.1-0.2-0.1-0.4-0.1-0.6
			c0-0.5,0.1-0.9,0.4-1.1c0.2-0.3,0.5-0.4,0.9-0.4c0.2,0,0.4,0,0.6,0.1c0.2,0.1,0.3,0.2,0.4,0.4V5c0-0.2,0-0.3,0.1-0.4
			c0.1-0.1,0.2-0.1,0.3-0.1c0.1,0,0.2,0,0.3,0.1c0.1,0.1,0.1,0.2,0.1,0.3v3.4c0,0.1,0,0.3-0.1,0.3c-0.1,0.1-0.2,0.1-0.3,0.1
			c-0.1,0-0.2,0-0.3-0.1C17.8,8.6,17.8,8.5,17.8,8.3z M16.3,7.2c0,0.2,0,0.4,0.1,0.5C16.4,7.9,16.5,8,16.6,8
			c0.1,0.1,0.2,0.1,0.4,0.1c0.1,0,0.3,0,0.4-0.1c0.1-0.1,0.2-0.2,0.3-0.3c0.1-0.1,0.1-0.3,0.1-0.5c0-0.2,0-0.4-0.1-0.5
			c-0.1-0.1-0.2-0.3-0.3-0.3S17.1,6.2,17,6.2c-0.1,0-0.3,0-0.4,0.1c-0.1,0.1-0.2,0.2-0.3,0.3C16.3,6.8,16.3,7,16.3,7.2z"/>
	</g>
</g>
<g>
	<path id="XMLID_52_" class="st13" d="M2.2-4.9v-2.8c0,0,0-0.2-0.1-0.3C2-8.1,1.8-8.1,1.8-8.1h-1c0,0-0.4-0.1-0.6-0.3C0-8.6,0-9,0-9
		v-1.7c0,0,0-0.5,0.3-0.7s0.6-0.3,0.6-0.3h0.8c0,0,0.1,0,0.3-0.1c0.2-0.1,0.1-0.3,0.1-0.3v-2.3c0,0,0.1-1.1,0.9-1.8
		C3.8-16.9,4.6-17,4.6-17h2.9c0,0,0.5,0.1,0.7,0.4C8.5-16.3,8.5-16,8.5-16l0,1.6c0,0,0.1,0.4-0.3,0.7c-0.3,0.3-0.6,0.3-0.6,0.3
		l-1.4,0c0,0-0.2,0-0.3,0.1c-0.1,0.1-0.1,0.2-0.1,0.2l0,1.1c0,0,0,0.2,0.2,0.3c0.1,0.1,0.3,0.1,0.3,0.1h1.4c0,0,0.5,0,0.6,0.4
		s0.2,0.4,0.1,0.7c0,0.3-0.3,1.5-0.3,1.5S8.1-8.6,7.8-8.3C7.6-8.1,7.2-8.1,7.2-8.1H6.1c0,0-0.1,0-0.2,0.1C5.8-7.9,5.8-7.8,5.8-7.8
		s0,4.3,0,4.2c0,0,0,0.2-0.3,0.5C5.2-2.7,4.9-2.7,4.9-2.7H3.4c0,0-0.4,0-0.4-0.5c0-0.5,0.4-0.5,0.4-0.5l1.1,0c0,0,0.2,0,0.2-0.1
		c0.1-0.2,0.1-0.3,0.1-0.3l0-3.9c0,0,0-0.4,0.3-0.7C5.5-9,5.8-9,5.8-9h1.1c0,0,0.2,0,0.3-0.3c0.2-0.5,0.3-1,0.3-1s0.1-0.2,0-0.4
		c-0.1-0.1-0.2-0.1-0.2-0.1l-1.4,0c0,0-0.5,0-0.8-0.4c-0.3-0.3-0.3-0.6-0.3-0.6v-1.6c0,0,0-0.4,0.4-0.8c0.3-0.3,0.6-0.3,0.6-0.3h1.5
		c0,0,0.1,0,0.2-0.1c0.1-0.1,0.1-0.2,0.1-0.2v-1.1c0,0,0-0.2-0.1-0.2c-0.1-0.1-0.3-0.1-0.3-0.1H5c0,0-0.7,0.1-1.3,0.7
		c-0.5,0.5-0.5,1.1-0.5,1.1v2.5c0,0,0,0.5-0.4,0.8c-0.3,0.3-0.6,0.3-0.6,0.3l-0.9,0c0,0-0.2,0-0.3,0.1c-0.1,0.1-0.1,0.2-0.1,0.2v1
		c0,0,0,0.2,0.1,0.3C1.2-9,1.3-9,1.3-9l0.8,0c0,0,0.4,0,0.7,0.3C3.2-8.3,3.1-8,3.1-8l0,3.1c0,0,0,0.4-0.5,0.4S2.2-4.9,2.2-4.9z"/>
	<g id="XMLID_39_">
		<path id="XMLID_49_" class="st13" d="M11.2-9.7H9.7c0,0.2,0,0.3,0.1,0.5C9.9-9.1,10-9,10.1-8.9c0.1,0.1,0.2,0.1,0.4,0.1
			c0.1,0,0.2,0,0.3,0c0.1,0,0.1-0.1,0.2-0.1c0.1,0,0.1-0.1,0.2-0.1c0.1-0.1,0.1-0.1,0.2-0.2c0,0,0.1-0.1,0.2-0.1
			c0.1,0,0.1,0,0.2,0.1c0,0,0.1,0.1,0.1,0.2c0,0.1,0,0.2-0.1,0.2c-0.1,0.1-0.1,0.2-0.2,0.3c-0.1,0.1-0.2,0.2-0.4,0.2
			c-0.2,0.1-0.4,0.1-0.6,0.1c-0.5,0-0.9-0.1-1.2-0.4C9.1-9,8.9-9.4,8.9-9.9c0-0.2,0-0.4,0.1-0.6s0.2-0.4,0.3-0.5
			c0.1-0.1,0.3-0.2,0.5-0.3c0.2-0.1,0.4-0.1,0.6-0.1c0.3,0,0.6,0.1,0.8,0.2c0.2,0.1,0.4,0.3,0.5,0.5c0.1,0.2,0.2,0.4,0.2,0.6
			c0,0.2-0.1,0.3-0.2,0.4C11.6-9.7,11.4-9.7,11.2-9.7z M9.7-10.1h1.4c0-0.3-0.1-0.5-0.2-0.6c-0.1-0.1-0.3-0.2-0.5-0.2
			c-0.2,0-0.3,0.1-0.5,0.2C9.8-10.6,9.7-10.4,9.7-10.1z"/>
		<path id="XMLID_46_" class="st13" d="M14.5-9.7H13c0,0.2,0,0.3,0.1,0.5c0.1,0.1,0.2,0.2,0.3,0.3c0.1,0.1,0.2,0.1,0.4,0.1
			c0.1,0,0.2,0,0.3,0c0.1,0,0.1-0.1,0.2-0.1c0.1,0,0.1-0.1,0.2-0.1c0.1-0.1,0.1-0.1,0.2-0.2c0,0,0.1-0.1,0.2-0.1
			c0.1,0,0.1,0,0.2,0.1c0,0,0.1,0.1,0.1,0.2c0,0.1,0,0.2-0.1,0.2c-0.1,0.1-0.1,0.2-0.2,0.3c-0.1,0.1-0.2,0.2-0.4,0.2
			c-0.2,0.1-0.4,0.1-0.6,0.1c-0.5,0-0.9-0.1-1.2-0.4c-0.3-0.3-0.4-0.7-0.4-1.1c0-0.2,0-0.4,0.1-0.6s0.2-0.4,0.3-0.5
			c0.1-0.1,0.3-0.2,0.5-0.3c0.2-0.1,0.4-0.1,0.6-0.1c0.3,0,0.6,0.1,0.8,0.2c0.2,0.1,0.4,0.3,0.5,0.5c0.1,0.2,0.2,0.4,0.2,0.6
			c0,0.2-0.1,0.3-0.2,0.4C14.9-9.7,14.7-9.7,14.5-9.7z M13-10.1h1.4c0-0.3-0.1-0.5-0.2-0.6c-0.1-0.1-0.3-0.2-0.5-0.2
			c-0.2,0-0.3,0.1-0.5,0.2C13.1-10.6,13-10.4,13-10.1z"/>
		<path id="XMLID_43_" class="st13" d="M17.8-8.8L17.8-8.8c-0.1,0-0.2,0.1-0.3,0.2c-0.1,0.1-0.2,0.1-0.3,0.2c-0.1,0-0.2,0.1-0.4,0.1
			c-0.2,0-0.4,0-0.5-0.1c-0.2-0.1-0.3-0.2-0.4-0.3c-0.1-0.1-0.2-0.3-0.3-0.5c-0.1-0.2-0.1-0.4-0.1-0.6c0-0.5,0.1-0.9,0.4-1.1
			c0.2-0.3,0.5-0.4,0.9-0.4c0.2,0,0.4,0,0.6,0.1c0.2,0.1,0.3,0.2,0.4,0.4v-1.1c0-0.2,0-0.3,0.1-0.4c0.1-0.1,0.2-0.1,0.3-0.1
			c0.1,0,0.2,0,0.3,0.1c0.1,0.1,0.1,0.2,0.1,0.3v3.4c0,0.1,0,0.3-0.1,0.3c-0.1,0.1-0.2,0.1-0.3,0.1c-0.1,0-0.2,0-0.3-0.1
			C17.8-8.5,17.8-8.6,17.8-8.8z M16.3-9.9c0,0.2,0,0.4,0.1,0.5c0.1,0.1,0.2,0.3,0.3,0.3c0.1,0.1,0.2,0.1,0.4,0.1
			c0.1,0,0.3,0,0.4-0.1c0.1-0.1,0.2-0.2,0.3-0.3c0.1-0.1,0.1-0.3,0.1-0.5c0-0.2,0-0.4-0.1-0.5c-0.1-0.1-0.2-0.3-0.3-0.3
			s-0.2-0.1-0.4-0.1c-0.1,0-0.3,0-0.4,0.1c-0.1,0.1-0.2,0.2-0.3,0.3S16.3-10.1,16.3-9.9z"/>
	</g>
</g>
</svg>
